<?xml version="1.0" encoding="UTF-8"?>
<svg width="74px" height="102px" viewBox="0 0 74 102" version="1.1" xmlns="http://www.w3.org/2000/svg" xmlns:xlink="http://www.w3.org/1999/xlink">
    <!-- Generator: Sketch 46.2 (44496) - http://www.bohemiancoding.com/sketch -->
    <title>item3</title>
    <desc>Created with Sketch.</desc>
    <defs></defs>
    <g id="Home" stroke="none" stroke-width="1" fill="none" fill-rule="evenodd">
        <g id="Home-Abrilar" transform="translate(-1001.000000, -1300.000000)">
            <g id="BENEFICIOS" transform="translate(0.000000, 1251.000000)">
                <g id="item3" transform="translate(1002.000000, 49.000000)">
                    <path d="M12.3945,56.3536 C14.9005,53.0686 17.7545,49.7976 20.9235,46.6286 C38.8665,28.6856 60.1045,20.8316 68.3585,29.0856 C76.6135,37.3406 68.7595,58.5776 50.8165,76.5206 C32.8735,94.4636 11.6355,102.3176 3.3815,94.0636 C-1.5925,89.0896 -0.7175,79.4026 4.6885,68.5626" id="Stroke-1" stroke="#000000" stroke-width="2.199" stroke-linecap="round" stroke-linejoin="round"></path>
                    <path d="M37.71,89.898 C32.114,86.48 26.367,81.965 20.924,76.521 C2.981,58.578 -4.873,37.341 3.381,29.086 C11.636,20.832 32.873,28.686 50.816,46.629 C68.759,64.571 76.613,85.809 68.359,94.063 C63.502,98.92 54.15,98.2 43.62,93.13" id="Stroke-3" stroke="#000000" stroke-width="2.199" stroke-linecap="round" stroke-linejoin="round"></path>
                    <path d="M41.8962,93.5118 C40.9672,96.0608 38.7482,98.0058 36.1062,98.5858 C36.0262,98.6028 35.9472,98.6118 35.8692,98.6118 C35.3642,98.6118 34.9092,98.2608 34.7962,97.7478 C34.6662,97.1548 35.0412,96.5678 35.6342,96.4378 C37.5482,96.0178 39.1562,94.6078 39.8302,92.7588 C40.0382,92.1878 40.6682,91.8938 41.2402,92.1018 C41.8102,92.3098 42.1042,92.9408 41.8962,93.5118 L41.8962,93.5118 Z M27.6032,62.7418 L27.6032,92.6248 C27.6032,97.1718 31.3232,100.8918 35.8702,100.8918 L35.8702,100.8918 C40.4162,100.8918 44.1362,97.1718 44.1362,92.6248 L44.1362,62.7418 L27.6032,62.7418 Z" id="Fill-5" fill="#2B8E0D"></path>
                    <path d="M42.0311,8.1556 C44.1591,8.1556 45.8841,9.8806 45.8841,12.0086 C45.8841,14.1366 44.1591,15.8616 42.0311,15.8616 C39.9031,15.8616 38.1781,14.1366 38.1781,12.0086 C38.1781,9.8806 39.9031,8.1556 42.0311,8.1556 Z" id="Stroke-7" stroke="#000000" stroke-width="2.199" stroke-linecap="round" stroke-linejoin="round"></path>
                    <path d="M44.1365,21.6913 L44.1365,92.6253 C44.1365,97.1713 40.4165,100.8913 35.8695,100.8913 L35.8695,100.8913 C31.3235,100.8913 27.6035,97.1713 27.6035,92.6253 L27.6035,21.6913" id="Stroke-9" stroke="#000000" stroke-width="2.199" stroke-linecap="round" stroke-linejoin="round"></path>
                    <path d="M24.3795,20.2959 L47.3605,20.2959" id="Stroke-11" stroke="#000000" stroke-width="2.199" stroke-linecap="round" stroke-linejoin="round"></path>
                    <path d="M37.5469,56.3548 L44.1369,56.3548" id="Stroke-13" stroke="#000000" stroke-width="2.199" stroke-linecap="round" stroke-linejoin="round"></path>
                    <path d="M40.4791,49.9673 L44.1361,49.9673" id="Stroke-15" stroke="#000000" stroke-width="2.199" stroke-linecap="round" stroke-linejoin="round"></path>
                    <path d="M40.8417,2.8461 C40.8417,4.4181 39.5677,5.6921 37.9957,5.6921 C36.4237,5.6921 35.1497,4.4181 35.1497,2.8461 C35.1497,1.2741 36.4237,0.0001 37.9957,0.0001 C39.5677,0.0001 40.8417,1.2741 40.8417,2.8461" id="Fill-17" fill="#2B8E0D"></path>
                </g>
            </g>
        </g>
    </g>
</svg>