<?xml version="1.0" encoding="UTF-8"?>
<svg width="93px" height="93px" viewBox="0 0 93 93" version="1.1" xmlns="http://www.w3.org/2000/svg" xmlns:xlink="http://www.w3.org/1999/xlink">
    <!-- Generator: Sketch 46.2 (44496) - http://www.bohemiancoding.com/sketch -->
    <title>item1</title>
    <desc>Created with Sketch.</desc>
    <defs></defs>
    <g id="Home" stroke="none" stroke-width="1" fill="none" fill-rule="evenodd">
        <g id="Home-Abrilar" transform="translate(-147.000000, -1309.000000)">
            <g id="BENEFICIOS" transform="translate(0.000000, 1251.000000)">
                <g id="item1" transform="translate(148.000000, 59.000000)">
                    <path d="M58.0253,10.1728 C68.1123,13.8078 76.1863,21.6578 80.1213,31.5978" id="Stroke-1" stroke="#000000" stroke-width="2.199" stroke-linecap="round" stroke-linejoin="round"></path>
                    <path d="M10.3035,32.3197 C14.1275,22.0377 22.3475,13.8947 32.6785,10.1727" id="Stroke-3" stroke="#000000" stroke-width="2.199" stroke-linecap="round" stroke-linejoin="round"></path>
                    <path d="M17.0535,10.1717 C18.1875,9.2997 19.3725,8.4917 20.6035,7.7517" id="Stroke-5" stroke="#000000" stroke-width="2.199" stroke-linecap="round" stroke-linejoin="round"></path>
                    <path d="M6.2825,23.2953 C7.9825,19.8523 10.1965,16.7093 12.8245,13.9653" id="Stroke-7" stroke="#000000" stroke-width="2.199" stroke-linecap="round" stroke-linejoin="round"></path>
                    <path d="M32.8882,80.6047 C22.5232,76.9407 14.2572,68.8357 10.3762,58.5757" id="Stroke-9" stroke="#000000" stroke-width="2.199" stroke-linecap="round" stroke-linejoin="round"></path>
                    <path d="M80.4788,58.1643 C76.7288,68.4413 68.5988,76.6103 58.3468,80.4113" id="Stroke-11" stroke="#000000" stroke-width="2.199" stroke-linecap="round" stroke-linejoin="round"></path>
                    <path d="M77.1975,76.33 C74.6165,78.997 71.6415,81.28 68.3675,83.087" id="Stroke-13" stroke="#000000" stroke-width="2.199" stroke-linecap="round" stroke-linejoin="round"></path>
                    <path d="M82.008,70.1976 C81.465,71.0626 80.887,71.9036 80.276,72.7186" id="Stroke-15" stroke="#000000" stroke-width="2.199" stroke-linecap="round" stroke-linejoin="round"></path>
                    <path d="M90.6024,45.351 C90.6024,49.697 87.0794,53.221 82.7324,53.221 C78.3864,53.221 74.8624,49.697 74.8624,45.351 C74.8624,41.005 78.3864,37.481 82.7324,37.481 C87.0794,37.481 90.6024,41.005 90.6024,45.351 Z" id="Stroke-17" stroke="#00983A" stroke-width="2.199" stroke-linecap="round" stroke-linejoin="round"></path>
                    <path d="M15.8392,45.351 C15.8392,49.697 12.3162,53.221 7.9692,53.221 C3.6232,53.221 0.0992,49.697 0.0992,45.351 C0.0992,41.005 3.6232,37.481 7.9692,37.481 C12.3162,37.481 15.8392,41.005 15.8392,45.351 Z" id="Stroke-19" stroke="#00983A" stroke-width="2.199" stroke-linecap="round" stroke-linejoin="round"></path>
                    <polygon id="Fill-21" fill="#469D2C" points="57.0038 55.4071 53.8318 55.4071 53.8318 62.0481 47.0848 62.0481 47.0848 55.4071 33.6978 55.4071 33.6978 48.6611 43.7018 28.6541 51.3778 28.6541 41.3538 48.6611 47.0848 48.6611 47.0848 43.7331 53.8318 43.7331 53.8318 48.6611 57.0038 48.6611"></polygon>
                    <path d="M45.351,0.0996 C49.697,0.0996 53.221,3.6226 53.221,7.9696 C53.221,12.3156 49.697,15.8396 45.351,15.8396 C41.005,15.8396 37.481,12.3156 37.481,7.9696 C37.481,3.6226 41.005,0.0996 45.351,0.0996 Z" id="Stroke-23" stroke="#00983A" stroke-width="2.199" stroke-linecap="round" stroke-linejoin="round"></path>
                    <path d="M45.351,74.8628 C49.697,74.8628 53.221,78.3858 53.221,82.7328 C53.221,87.0788 49.697,90.6028 45.351,90.6028 C41.005,90.6028 37.481,87.0788 37.481,82.7328 C37.481,78.3858 41.005,74.8628 45.351,74.8628 Z" id="Stroke-25" stroke="#00983A" stroke-width="2.199" stroke-linecap="round" stroke-linejoin="round"></path>
                    <path d="M82.7326,45.351 L89.8696,45.351" id="Stroke-27" stroke="#00983A" stroke-width="2.199" stroke-linecap="round" stroke-linejoin="round"></path>
                    <path d="M0.8326,45.351 L7.9696,45.351" id="Stroke-29" stroke="#00983A" stroke-width="2.199" stroke-linecap="round" stroke-linejoin="round"></path>
                    <path d="M45.351,7.9694 L45.351,0.8324" id="Stroke-31" stroke="#00983A" stroke-width="2.199" stroke-linecap="round" stroke-linejoin="round"></path>
                    <path d="M45.351,89.8694 L45.351,82.7324" id="Stroke-33" stroke="#00983A" stroke-width="2.199" stroke-linecap="round" stroke-linejoin="round"></path>
                </g>
            </g>
        </g>
    </g>
</svg>