<?xml version="1.0" encoding="UTF-8"?>
<svg width="193px" height="56px" viewBox="0 0 193 56" version="1.1" xmlns="http://www.w3.org/2000/svg" xmlns:xlink="http://www.w3.org/1999/xlink">
    <!-- Generator: Sketch 46.2 (44496) - http://www.bohemiancoding.com/sketch -->
    <title>logoAbrilar</title>
    <desc>Created with Sketch.</desc>
    <defs>
        <polygon id="path-1" points="0 56 192.623293 56 192.623293 0.542278481 0 0.542278481"></polygon>
    </defs>
    <g id="Home" stroke="none" stroke-width="1" fill="none" fill-rule="evenodd">
        <g id="Home-Abrilar" transform="translate(-155.000000, -33.000000)">
            <g id="logoAbrilar" transform="translate(155.000000, 33.000000)">
                <polygon id="Fill-1" fill="#6C6E70" points="0 47 0 48.3613567 2.73716612 48.3613567 2.73716612 56 4.25101777 56 4.25101777 48.3613567 7 48.3613567 7 47"></polygon>
                <g id="Group-44">
                    <path d="M9.79239111,50.9853772 L12.3457096,50.9853772 C13.3292948,50.9853772 13.8646911,50.5033519 13.8646911,49.5775797 C13.8646911,48.4533266 13.1305763,48.2307443 12.3206911,48.2307443 L9.79239111,48.2307443 L9.79239111,50.9853772 Z M8.23480963,46.9710987 L12.4829541,46.9710987 C14.4251059,46.9710987 15.4222726,47.8600101 15.4222726,49.3542886 C15.4222726,51.0470481 14.2392541,51.4794532 13.9518985,51.5779848 L13.9518985,51.6027949 C14.4880096,51.6772253 15.2728763,52.0720608 15.2728763,53.4678076 C15.2728763,54.4928203 15.4222726,55.4320608 15.7589504,55.7900354 L14.0898578,55.7900354 C13.8532541,55.4072506 13.8532541,54.9259342 13.8532541,54.4928203 C13.8532541,52.8752 13.5165763,52.1585418 12.0840874,52.1585418 L9.79239111,52.1585418 L9.79239111,55.7900354 L8.23480963,55.7900354 L8.23480963,46.9710987 Z" id="Fill-2" fill="#6C6E70"></path>
                    <mask id="mask-2" fill="white">
                        <use xlink:href="#path-1"></use>
                    </mask>
                    <g id="Clip-5"></g>
                    <polygon id="Fill-4" fill="#6C6E70" mask="url(#mask-2)" points="17.0061593 55.7901772 18.5637407 55.7901772 18.5637407 46.9712405 17.0061593 46.9712405"></polygon>
                    <path d="M22.0273044,51.1459342 L24.3068489,51.1459342 C25.0037933,51.1459342 25.8630007,50.8000101 25.8630007,49.6878076 C25.8630007,48.5274025 25.1531896,48.2310987 24.3318674,48.2310987 L22.0273044,48.2310987 L22.0273044,51.1459342 Z M20.469723,46.9707443 L24.3940563,46.9707443 C26.9345081,46.9707443 27.4205822,48.6011241 27.4205822,49.7005671 C27.4205822,50.7872506 26.9345081,52.4183392 24.3940563,52.4055797 L22.0273044,52.4055797 L22.0273044,55.7903899 L20.469723,55.7903899 L20.469723,46.9707443 Z" id="Fill-6" fill="#6C6E70" mask="url(#mask-2)"></path>
                    <polygon id="Fill-7" fill="#6C6E70" mask="url(#mask-2)" points="28.7803744 46.9710278 30.3379559 46.9710278 30.3379559 54.4565975 34.8591596 54.4565975 34.8591596 55.7899646 28.7803744 55.7899646"></polygon>
                    <polygon id="Fill-8" fill="#6C6E70" mask="url(#mask-2)" points="35.9320252 46.9710278 42.3346215 46.9710278 42.3346215 48.3051038 37.4896067 48.3051038 37.4896067 50.6145722 41.9729252 50.6145722 41.9729252 51.8749266 37.4896067 51.8749266 37.4896067 54.4565975 42.4218289 54.4565975 42.4218289 55.7899646 35.9320252 55.7899646"></polygon>
                    <path d="M49.0765404,52.2819544 L51.7921219,52.2819544 L50.4589922,48.4895494 L50.4218219,48.4895494 L49.0765404,52.2819544 Z M49.6248033,46.9711696 L51.2810293,46.9711696 L54.7071367,55.7901063 L53.0373293,55.7901063 L52.2031404,53.4558278 L48.6526552,53.4558278 L47.8184663,55.7901063 L46.2115626,55.7901063 L49.6248033,46.9711696 Z" id="Fill-9" fill="#6C6E70" mask="url(#mask-2)"></path>
                    <path d="M61.5599233,49.774643 C61.2983011,48.761681 60.6378122,48.0202127 59.3425678,48.0202127 C57.4368715,48.0202127 56.639853,49.688162 56.639853,51.3809215 C56.639853,53.0722633 57.4368715,54.7402127 59.3425678,54.7402127 C60.7250196,54.7402127 61.4855826,53.7152 61.6092456,52.4307443 L63.1289419,52.4307443 C63.0045641,54.5431494 61.4977344,55.9998582 59.3425678,55.9998582 C56.6770233,55.9998582 55.0829863,53.9002127 55.0829863,51.3809215 C55.0829863,48.8609215 56.6770233,46.7605671 59.3425678,46.7605671 C61.3476233,46.7733266 62.9302233,47.8720608 63.11679,49.774643 L61.5599233,49.774643 Z" id="Fill-10" fill="#6C6E70" mask="url(#mask-2)"></path>
                    <path d="M70.5558678,49.774643 C70.2942456,48.761681 69.6337567,48.0202127 68.3385122,48.0202127 C66.4328159,48.0202127 65.6357974,49.688162 65.6357974,51.3809215 C65.6357974,53.0722633 66.4328159,54.7402127 68.3385122,54.7402127 C69.7209641,54.7402127 70.4808122,53.7152 70.60519,52.4307443 L72.1248863,52.4307443 C72.0005085,54.5431494 70.4936789,55.9998582 68.3385122,55.9998582 C65.6729678,55.9998582 64.0782159,53.9002127 64.0782159,51.3809215 C64.0782159,48.8609215 65.6729678,46.7605671 68.3385122,46.7605671 C70.3435678,46.7733266 71.9261678,47.8720608 72.1127344,49.774643 L70.5558678,49.774643 Z" id="Fill-11" fill="#6C6E70" mask="url(#mask-2)"></path>
                    <polygon id="Fill-12" fill="#6C6E70" mask="url(#mask-2)" points="73.5480111 55.7901772 75.1055926 55.7901772 75.1055926 46.9712405 73.5480111 46.9712405"></polygon>
                    <path d="M80.984873,44.5128405 L82.6668322,44.5128405 L80.8976656,46.2786127 L79.8640433,46.2786127 L80.984873,44.5128405 Z M78.0955915,51.3802835 C78.0955915,53.0723342 78.89261,54.7402835 80.7983063,54.7402835 C82.7040026,54.7402835 83.5010211,53.0723342 83.5010211,51.3802835 C83.5010211,49.6882329 82.7040026,48.0202835 80.7983063,48.0202835 C78.89261,48.0202835 78.0955915,49.6882329 78.0955915,51.3802835 L78.0955915,51.3802835 Z M85.0578878,51.3802835 C85.0578878,53.9002835 83.4638507,55.9999291 80.7983063,55.9999291 C78.1327619,55.9999291 76.53801,53.9002835 76.53801,51.3802835 C76.53801,48.8609924 78.1327619,46.760638 80.7983063,46.760638 C83.4638507,46.760638 85.0578878,48.8609924 85.0578878,51.3802835 L85.0578878,51.3802835 Z" id="Fill-13" fill="#6C6E70" mask="url(#mask-2)"></path>
                    <polygon id="Fill-14" fill="#6C6E70" mask="url(#mask-2)" points="86.4186093 46.9710278 88.0626833 46.9710278 92.1228315 53.4677367 92.1485648 53.4677367 92.1485648 46.9710278 93.6303759 46.9710278 93.6303759 55.7899646 91.9863019 55.7899646 87.9383056 49.3053063 87.9004204 49.3053063 87.9004204 55.7899646 86.4186093 55.7899646"></polygon>
                    <polygon id="Fill-15" fill="#6C6E70" mask="url(#mask-2)" points="97.9310593 46.9710278 104.980563 46.9710278 104.980563 47.6876861 101.878981 47.6876861 101.878981 55.7899646 101.032641 55.7899646 101.032641 47.6876861 97.9310593 47.6876861"></polygon>
                    <polygon id="Fill-16" fill="#6C6E70" mask="url(#mask-2)" points="105.817754 46.9710278 111.958728 46.9710278 111.958728 47.6876861 106.664095 47.6876861 106.664095 50.8740152 111.62205 50.8740152 111.62205 51.5906734 106.664095 51.5906734 106.664095 55.0740152 112.020917 55.0740152 112.020917 55.7899646 105.817754 55.7899646"></polygon>
                    <path d="M114.052778,51.1584101 L117.216549,51.1584101 C118.250171,51.1584101 119.134397,50.5161823 119.134397,49.4408405 C119.134397,48.3662076 118.487489,47.6878278 117.216549,47.6878278 L114.052778,47.6878278 L114.052778,51.1584101 Z M113.205723,46.9711696 L117.279452,46.9711696 C118.748397,46.9711696 119.982167,47.6750684 119.982167,49.2685873 C119.982167,50.3793722 119.396734,51.2938025 118.250171,51.5163848 L118.250171,51.5411949 C119.408886,51.6893468 119.745563,52.4797266 119.807752,53.5302582 C119.844923,54.1349165 119.844923,55.3456506 120.218771,55.7901063 L119.284508,55.7901063 C119.072208,55.4441823 119.072208,54.7899038 119.047189,54.4191696 C118.972849,53.1836253 118.873489,51.8126886 117.266586,51.8750684 L114.052778,51.8750684 L114.052778,55.7901063 L113.205723,55.7901063 L113.205723,46.9711696 Z" id="Fill-17" fill="#6C6E70" mask="url(#mask-2)"></path>
                    <path d="M122.774305,52.3317873 L126.274039,52.3317873 L124.555624,47.8106734 L122.774305,52.3317873 Z M124.119587,46.9713823 L125.066001,46.9713823 L128.553583,55.790319 L127.644339,55.790319 L126.560679,53.0484456 L122.512683,53.0484456 L121.44189,55.790319 L120.531931,55.790319 L124.119587,46.9713823 Z" id="Fill-18" fill="#6C6E70" mask="url(#mask-2)"></path>
                    <path d="M130.212883,51.2940861 L133.127897,51.2940861 C134.298764,51.2940861 135.108649,50.7007696 135.108649,49.4907443 C135.108649,48.2800101 134.298764,47.6874025 133.127897,47.6874025 L130.212883,47.6874025 L130.212883,51.2940861 Z M129.365827,46.9707443 L133.314464,46.9707443 C134.908501,46.9707443 135.95499,47.8972253 135.95499,49.4907443 C135.95499,51.0842633 134.908501,52.0107443 133.314464,52.0107443 L130.212883,52.0107443 L130.212883,55.7903899 L129.365827,55.7903899 L129.365827,46.9707443 Z" id="Fill-19" fill="#6C6E70" mask="url(#mask-2)"></path>
                    <path d="M139.906129,46.2663494 L139.270659,46.2663494 L140.57877,44.5253873 L141.550203,44.5253873 L139.906129,46.2663494 Z M137.215566,46.970957 L143.35654,46.970957 L143.35654,47.6876152 L138.062621,47.6876152 L138.062621,50.8739443 L143.019862,50.8739443 L143.019862,51.5906025 L138.062621,51.5906025 L138.062621,55.0739443 L143.418729,55.0739443 L143.418729,55.7906025 L137.215566,55.7906025 L137.215566,46.970957 Z" id="Fill-20" fill="#6C6E70" mask="url(#mask-2)"></path>
                    <path d="M144.516827,46.9710278 L145.363883,46.9710278 L145.363883,52.4306734 C145.351016,54.4814076 146.335316,55.2590278 147.967239,55.2590278 C149.611313,55.2590278 150.595613,54.4814076 150.582746,52.4306734 L150.582746,46.9710278 L151.429801,46.9710278 L151.429801,52.6156861 C151.429801,54.4310785 150.445501,55.9756861 147.967239,55.9756861 C145.501127,55.9756861 144.516827,54.4310785 144.516827,52.6156861 L144.516827,46.9710278 Z" id="Fill-21" fill="#6C6E70" mask="url(#mask-2)"></path>
                    <polygon id="Fill-22" fill="#6C6E70" mask="url(#mask-2)" points="152.179499 46.9710278 159.229003 46.9710278 159.229003 47.6876861 156.127421 47.6876861 156.127421 55.7899646 155.281081 55.7899646 155.281081 47.6876861 152.179499 47.6876861"></polygon>
                    <polygon id="Fill-23" fill="#6C6E70" mask="url(#mask-2)" points="160.128526 55.7901772 160.975581 55.7901772 160.975581 46.9712405 160.128526 46.9712405"></polygon>
                    <path d="M169.333625,49.6389671 C169.034833,48.280081 167.901136,47.5017519 166.605892,47.5017519 C164.252007,47.5017519 163.25484,49.4532456 163.25484,51.380638 C163.25484,53.3073215 164.252007,55.2595241 166.605892,55.2595241 C168.249966,55.2595241 169.296455,53.9991696 169.458718,52.4304608 L170.305059,52.4304608 C170.068455,54.5917772 168.686003,55.9754734 166.605892,55.9754734 C163.803818,55.9754734 162.407784,53.7893468 162.407784,51.380638 C162.407784,48.9719291 163.803818,46.7858025 166.605892,46.7858025 C168.287136,46.7858025 169.956229,47.7860051 170.181396,49.6389671 L169.333625,49.6389671 Z" id="Fill-24" fill="#6C6E70" mask="url(#mask-2)"></path>
                    <path d="M172.861665,52.3317873 L176.361399,52.3317873 L174.642984,47.8106734 L172.861665,52.3317873 Z M174.206947,46.9713823 L175.153361,46.9713823 L178.640943,55.790319 L177.731699,55.790319 L176.648039,53.0484456 L172.600043,53.0484456 L171.52925,55.790319 L170.619291,55.790319 L174.206947,46.9713823 Z" id="Fill-25" fill="#6C6E70" mask="url(#mask-2)"></path>
                    <path d="M21.3990537,10.9007899 L16.0086352,24.4095494 L26.790187,24.4095494 L21.3990537,10.9007899 Z M29.2934685,30.6149165 L13.5053537,30.6149165 L10.7140019,37.6312203 L0.653698148,37.6312203 L15.7677426,3.5499038 L27.0310796,3.5499038 L42.1444093,37.6312203 L32.0848204,37.6312203 L29.2934685,30.6149165 Z" id="Fill-26" fill="#61BB46" mask="url(#mask-2)"></path>
                    <path d="M60.4870578,32.3805468 C64.770943,32.3805468 68.4779726,29.8513316 68.4779726,24.9814582 C68.4779726,20.1130025 64.770943,17.5837873 60.4870578,17.5837873 C56.25178,17.5837873 52.5454652,20.1130025 52.5454652,24.9814582 C52.5454652,29.8513316 56.25178,32.3805468 60.4870578,32.3805468 L60.4870578,32.3805468 Z M44.3622652,2.97700253 L52.8342504,2.97700253 L52.8342504,15.1970532 L52.9307504,15.1970532 C54.5669615,12.9053063 58.0809911,11.3784203 62.8459467,11.3784203 C70.9805393,11.3784203 77.2380281,16.8196354 77.2380281,25.125357 C77.2380281,34.0988253 70.6438615,38.5859139 62.2683763,38.5859139 C58.7064541,38.5859139 55.8664948,37.8699646 52.6412504,34.4326987 L52.5454652,34.4326987 L52.5454652,37.6310785 L44.3622652,37.6310785 L44.3622652,2.97700253 Z" id="Fill-27" fill="#61BB46" mask="url(#mask-2)"></path>
                    <path d="M81.8134863,12.0464506 L89.9959715,12.0464506 L89.9959715,17.0580962 L90.0924715,17.0580962 C93.1733233,13.1444759 95.5801048,11.3787038 100.392953,11.3787038 C101.355809,11.3787038 102.510949,11.4261975 103.473805,11.6175899 L103.473805,19.4930329 C101.933379,19.0627544 100.392953,18.7295899 98.8046344,18.7295899 C93.0282159,18.7295899 90.2854715,21.640881 90.2854715,26.6050329 L90.2854715,37.631362 L81.8134863,37.631362 L81.8134863,12.0464506 Z" id="Fill-28" fill="#61BB46" mask="url(#mask-2)"></path>
                    <path d="M106.796907,37.6312911 L115.268893,37.6312911 L115.268893,12.0463797 L106.796907,12.0463797 L106.796907,37.6312911 Z M106.796907,8.89620253 L115.268893,8.89620253 L115.268893,2.97721519 L106.796907,2.97721519 L106.796907,8.89620253 Z" id="Fill-29" fill="#61BB46" mask="url(#mask-2)"></path>
                    <polygon id="Fill-30" fill="#61BB46" mask="url(#mask-2)" points="121.045311 37.6312911 129.517296 37.6312911 129.517296 2.97721519 121.045311 2.97721519"></polygon>
                    <path d="M157.194354,25.1728506 C155.605321,25.9362937 153.873324,26.1276861 152.188506,26.2708759 L147.279158,26.7004456 C144.294091,26.9393316 142.802273,27.7509772 142.802273,30.0413063 C142.802273,32.3330532 144.968161,33.621762 148.145513,33.621762 C152.428684,33.621762 157.194354,31.5689013 157.194354,27.2732051 L157.194354,25.1728506 Z M135.389643,19.8741165 C136.400391,11.9986734 143.717236,11.0920405 150.64808,11.0920405 C162.777773,11.0920405 165.376839,15.0056608 165.376839,19.779838 L165.376839,32.476243 C165.376839,34.7197873 165.762124,36.3423696 166.339695,37.6310785 L157.86771,37.6310785 C157.578924,36.7244456 157.338747,35.8178127 157.290854,34.9104709 C154.403002,37.7742684 149.011869,38.5859139 145.209054,38.5859139 C138.470495,38.5859139 133.753432,36.2466734 133.753432,30.2801924 C133.753432,24.0748253 139.288243,22.7386228 144.438484,22.4047494 L153.440147,21.7844962 C156.039213,21.5931038 156.905569,21.1635342 156.905569,19.1106734 C156.905569,17.0585215 155.172858,16.0561924 150.26351,16.0561924 C146.65298,16.0561924 144.775876,16.3425722 143.572128,19.8741165 L135.389643,19.8741165 Z" id="Fill-31" fill="#61BB46" mask="url(#mask-2)"></path>
                    <path d="M170.962903,12.0464506 L179.145388,12.0464506 L179.145388,17.0580962 L179.241888,17.0580962 C182.32274,13.1444759 184.729521,11.3787038 189.542369,11.3787038 C190.505225,11.3787038 191.660366,11.4261975 192.623221,11.6175899 L192.623221,19.4930329 C191.082795,19.0627544 189.542369,18.7295899 187.954766,18.7295899 C182.177632,18.7295899 179.434888,21.640881 179.434888,26.6050329 L179.434888,37.631362 L170.962903,37.631362 L170.962903,12.0464506 Z" id="Fill-32" fill="#61BB46" mask="url(#mask-2)"></path>
                    <path d="M137.63745,6.17205063 C136.321476,6.13448101 134.592339,6.33367089 134.592339,7.76273418 C134.592339,8.6204557 135.169194,9.00536709 135.795372,9.00536709 C136.798257,9.00536709 137.374398,8.39716456 137.575261,7.81235443 C137.624583,7.6883038 137.63745,7.55149367 137.63745,7.45225316 L137.63745,6.17205063 Z M138.239324,7.94916456 C138.239324,8.42197468 138.251476,8.90612658 138.327246,9.36617722 L137.775409,9.36617722 L137.687487,8.5084557 L137.662468,8.5084557 C137.361531,8.96850633 136.698183,9.50227848 135.733183,9.50227848 C134.517283,9.50227848 133.965446,8.65802532 133.965446,7.86268354 C133.965446,6.48253165 135.181346,5.65032911 137.63745,5.67513924 L137.63745,5.51351899 C137.63745,4.92941772 137.525224,3.7484557 136.096309,3.76121519 C135.56949,3.76121519 135.018368,3.89802532 134.580187,4.20779747 L134.39219,3.77326582 C134.943313,3.4124557 135.620242,3.26359494 136.159213,3.26359494 C137.900501,3.26359494 138.239324,4.55655696 138.239324,5.61275949 L138.239324,7.94916456 Z" id="Fill-33" fill="#61BB46" mask="url(#mask-2)"></path>
                    <polygon id="Fill-34" fill="#61BB46" mask="url(#mask-2)" points="140.178759 9.36617722 140.780633 9.36617722 140.780633 0.542278481 140.178759 0.542278481"></polygon>
                    <path d="M142.834296,9.36617722 L143.43617,9.36617722 L143.43617,3.40040506 L142.834296,3.40040506 L142.834296,9.36617722 Z M143.6113,1.69772152 C143.6113,1.97134177 143.424019,2.20739241 143.110215,2.20739241 C142.834296,2.20739241 142.647015,1.97134177 142.647015,1.69772152 C142.647015,1.42481013 142.859315,1.176 143.135233,1.176 C143.411152,1.176 143.6113,1.41205063 143.6113,1.69772152 L143.6113,1.69772152 Z" id="Fill-35" fill="#61BB46" mask="url(#mask-2)"></path>
                    <path d="M145.265167,3.40033418 L146.669063,7.10484051 C146.907097,7.68823291 147.095093,8.1979038 147.257356,8.69552405 L147.282374,8.69552405 C147.446067,8.1979038 147.671234,7.67547342 147.897115,7.10484051 L149.32603,3.40033418 L149.952208,3.40033418 L147.508971,9.36610633 L146.981437,9.36610633 L144.625408,3.40033418 L145.265167,3.40033418 Z" id="Fill-36" fill="#61BB46" mask="url(#mask-2)"></path>
                    <path d="M151.114711,9.36617722 L151.716585,9.36617722 L151.716585,3.40040506 L151.114711,3.40040506 L151.114711,9.36617722 Z M151.891715,1.69772152 C151.891715,1.97134177 151.704433,2.20739241 151.39063,2.20739241 C151.114711,2.20739241 150.92743,1.97134177 150.92743,1.69772152 C150.92743,1.42481013 151.13973,1.176 151.415648,1.176 C151.691567,1.176 151.891715,1.41205063 151.891715,1.69772152 L151.891715,1.69772152 Z" id="Fill-37" fill="#61BB46" mask="url(#mask-2)"></path>
                    <path d="M156.878835,6.17205063 C155.562861,6.13448101 153.833724,6.33367089 153.833724,7.76273418 C153.833724,8.6204557 154.410579,9.00536709 155.036757,9.00536709 C156.039642,9.00536709 156.615783,8.39716456 156.816646,7.81235443 C156.865968,7.6883038 156.878835,7.55149367 156.878835,7.45225316 L156.878835,6.17205063 Z M157.480709,7.94916456 C157.480709,8.42197468 157.492861,8.90612658 157.568631,9.36617722 L157.016794,9.36617722 L156.928872,8.5084557 L156.903853,8.5084557 C156.602916,8.96850633 155.939568,9.50227848 154.974568,9.50227848 C153.758668,9.50227848 153.206831,8.65802532 153.206831,7.86268354 C153.206831,6.48253165 154.422731,5.65032911 156.878835,5.67513924 L156.878835,5.51351899 C156.878835,4.92941772 156.766609,3.7484557 155.337694,3.76121519 C154.810876,3.76121519 154.259753,3.89802532 153.821572,4.20779747 L153.633576,3.77326582 C154.184698,3.4124557 154.861627,3.26359494 155.400598,3.26359494 C157.141887,3.26359494 157.480709,4.55655696 157.480709,5.61275949 L157.480709,7.94916456 Z" id="Fill-38" fill="#61BB46" mask="url(#mask-2)"></path>
                    <polygon id="Fill-39" fill="#61BB46" mask="url(#mask-2)" points="162.163604 9.36617722 162.765478 9.36617722 162.765478 0.542278481 162.163604 0.542278481"></polygon>
                    <path d="M167.964755,6.17205063 C166.648781,6.13448101 164.919644,6.33367089 164.919644,7.76273418 C164.919644,8.6204557 165.496499,9.00536709 166.122677,9.00536709 C167.125562,9.00536709 167.701703,8.39716456 167.902566,7.81235443 C167.951888,7.6883038 167.964755,7.55149367 167.964755,7.45225316 L167.964755,6.17205063 Z M168.566629,7.94916456 C168.566629,8.42197468 168.578781,8.90612658 168.654551,9.36617722 L168.102714,9.36617722 L168.014792,8.5084557 L167.989773,8.5084557 C167.688836,8.96850633 167.025488,9.50227848 166.060488,9.50227848 C164.844588,9.50227848 164.292751,8.65802532 164.292751,7.86268354 C164.292751,6.48253165 165.508651,5.65032911 167.964755,5.67513924 L167.964755,5.51351899 C167.964755,4.92941772 167.852529,3.7484557 166.423614,3.76121519 C165.896796,3.76121519 165.345673,3.89802532 164.907492,4.20779747 L164.719496,3.77326582 C165.270618,3.4124557 165.947547,3.26359494 166.486518,3.26359494 C168.227807,3.26359494 168.566629,4.55655696 168.566629,5.61275949 L168.566629,7.94916456 Z" id="Fill-40" fill="#61BB46" mask="url(#mask-2)"></path>
                    <path d="M174.076993,2.08298734 L174.076993,3.40005063 L175.793979,3.40005063 L175.793979,3.88562025 L174.076993,3.88562025 L174.076993,7.76308861 C174.076993,8.52086076 174.315027,8.99296203 174.954071,8.99296203 C175.267875,8.99296203 175.493041,8.95610127 175.643153,8.90648101 L175.718923,9.35377215 C175.518775,9.44096203 175.242856,9.50263291 174.879016,9.50263291 C174.440834,9.50263291 174.076993,9.36582278 173.851112,9.0801519 C173.575908,8.76967089 173.475119,8.26 173.475119,7.65108861 L173.475119,3.88562025 L172.460082,3.88562025 L172.460082,3.40005063 L173.475119,3.40005063 L173.475119,2.30698734 L174.076993,2.08298734 Z" id="Fill-41" fill="#61BB46" mask="url(#mask-2)"></path>
                    <path d="M177.221035,6.3956962 C177.221035,7.8878481 178.186035,9.00572152 179.414087,9.00572152 C180.667157,9.00572152 181.657176,7.8878481 181.657176,6.35812658 C181.657176,5.26435443 181.043864,3.76086076 179.451257,3.76086076 C177.910116,3.76086076 177.221035,5.11549367 177.221035,6.3956962 M182.25905,6.32126582 C182.25905,8.54567089 180.717909,9.50263291 179.376916,9.50263291 C177.822909,9.50263291 176.619161,8.29756962 176.619161,6.43326582 C176.619161,4.39529114 177.97302,3.26394937 179.464124,3.26394937 C181.131072,3.26394937 182.25905,4.50658228 182.25905,6.32126582" id="Fill-42" fill="#61BB46" mask="url(#mask-2)"></path>
                    <path d="M183.534279,8.58316962 C183.860235,8.78165063 184.349168,8.99289114 184.888139,8.99289114 C185.840987,8.99289114 186.29132,8.48322025 186.29132,7.86225823 C186.29132,7.20372658 185.890309,6.85496709 185.026098,6.50762532 C184.035364,6.13476456 183.496394,5.60028354 183.496394,4.87937215 C183.496394,4.02165063 184.18619,3.26387848 185.351339,3.26387848 C185.902461,3.26387848 186.379242,3.42549873 186.679464,3.63673924 L186.454298,4.1216 C186.241283,3.97203038 185.852424,3.76078987 185.251264,3.76078987 C184.487127,3.76078987 184.085401,4.24565063 184.085401,4.79218228 C184.085401,5.41385316 184.511431,5.68747342 185.32632,6.02347342 C186.304187,6.39562532 186.881042,6.88048608 186.881042,7.78782785 C186.881042,8.80646076 186.07902,9.49051139 184.850253,9.49051139 C184.273398,9.49051139 183.722276,9.32889114 183.321264,9.08008101 L183.534279,8.58316962 Z" id="Fill-43" fill="#61BB46" mask="url(#mask-2)"></path>
                </g>
            </g>
        </g>
    </g>
</svg>